<?xml version="1.0" encoding="UTF-8" standalone="no"?>
<svg
   xmlns:dc="http://purl.org/dc/elements/1.1/"
   xmlns:cc="http://creativecommons.org/ns#"
   xmlns:rdf="http://www.w3.org/1999/02/22-rdf-syntax-ns#"
   xmlns:svg="http://www.w3.org/2000/svg"
   xmlns="http://www.w3.org/2000/svg"
   xmlns:sodipodi="http://sodipodi.sourceforge.net/DTD/sodipodi-0.dtd"
   xmlns:inkscape="http://www.inkscape.org/namespaces/inkscape"
   viewBox="0 0 400 400"
   version="1.1"
   id="svg88"
   sodipodi:docname="logo.svg"
   inkscape:version="0.92.3 (2405546, 2018-03-11)">
  <metadata
     id="metadata94">
    <rdf:RDF>
      <cc:Work
         rdf:about="">
        <dc:format>image/svg+xml</dc:format>
        <dc:type
           rdf:resource="http://purl.org/dc/dcmitype/StillImage" />
      </cc:Work>
    </rdf:RDF>
  </metadata>
  <defs
     id="defs92" />
  <sodipodi:namedview
     pagecolor="#ffffff"
     bordercolor="#666666"
     borderopacity="1"
     objecttolerance="10"
     gridtolerance="10"
     guidetolerance="10"
     inkscape:pageopacity="0"
     inkscape:pageshadow="2"
     inkscape:window-width="1366"
     inkscape:window-height="713"
     id="namedview90"
     showgrid="false"
     inkscape:zoom="1.3125"
     inkscape:cx="200"
     inkscape:cy="200"
     inkscape:window-x="0"
     inkscape:window-y="0"
     inkscape:window-maximized="1"
     inkscape:current-layer="svg88" />
  <g
     id="g86"
     fill="#e10098"
     style="fill:#2962ff;fill-opacity:1;opacity:1">
    <path
       d="m57.468 302.66-14.376-8.3 160.15-277.38 14.376 8.3z"
       id="path72"
       style="fill:#2962ff;fill-opacity:1" />
    <path
       d="m39.8 272.2h320.3v16.6h-320.3z"
       id="path74"
       style="fill:#2962ff;fill-opacity:1" />
    <path
       d="m206.348 374.026-160.21-92.5 8.3-14.376 160.21 92.5zm139.174-241.079-160.21-92.5 8.3-14.376 160.21 92.5z"
       id="path76"
       style="fill:#2962ff;fill-opacity:1" />
    <path
       d="m54.482 132.883-8.3-14.375 160.21-92.5 8.3 14.376z"
       id="path78"
       style="fill:#2962ff;fill-opacity:1" />
    <path
       d="m342.568 302.663-160.15-277.38 14.376-8.3 160.15 277.38zm-290.068-195.163h16.6v185h-16.6zm278.4 0h16.6v185h-16.6z"
       id="path80"
       style="fill:#2962ff;fill-opacity:1" />
    <path
       d="m203.522 367-7.25-12.558 139.34-80.45 7.25 12.557z"
       id="path82"
       style="fill:#2962ff;fill-opacity:1" />
    <path
       d="m369.5 297.9c-9.6 16.7-31 22.4-47.7 12.8s-22.4-31-12.8-47.7 31-22.4 47.7-12.8c16.8 9.7 22.5 31 12.8 47.7m-278.6-160.9c-9.6 16.7-31 22.4-47.7 12.8s-22.4-31-12.8-47.7 31-22.4 47.7-12.8c16.7 9.7 22.4 31 12.8 47.7m-60.4 160.9c-9.6-16.7-3.9-38 12.8-47.7 16.7-9.6 38-3.9 47.7 12.8 9.6 16.7 3.9 38-12.8 47.7-16.8 9.6-38.1 3.9-47.7-12.8m278.6-160.9c-9.6-16.7-3.9-38 12.8-47.7 16.7-9.6 38-3.9 47.7 12.8 9.6 16.7 3.9 38-12.8 47.7-16.7 9.6-38.1 3.9-47.7-12.8m-109.1 258.8c-19.3 0-34.9-15.6-34.9-34.9s15.6-34.9 34.9-34.9 34.9 15.6 34.9 34.9c0 19.2-15.6 34.9-34.9 34.9m0-321.8c-19.3 0-34.9-15.6-34.9-34.9s15.6-34.9 34.9-34.9 34.9 15.6 34.9 34.9-15.6 34.9-34.9 34.9"
       id="path84"
       style="fill:#2962ff;fill-opacity:1" />
  </g>
</svg>
